<?xml version="1.0" encoding="utf-8"?>
<!-- Generated by Shoe Palace, Inc. http://www.shoepalace.com/ -->
<!DOCTYPE svg PUBLIC "-//W3C//DTD SVG 1.1//EN" "http://www.w3.org/Graphics/SVG/1.1/DTD/svg11.dtd">
<svg preserveAspectRatio="xMidYMid" width="256px" height="256px" viewBox="0 0 256 256" xmlns="http://www.w3.org/2000/svg" version="1.1" xmlns:xlink="http://www.w3.org/1999/xlink">
	<path fill="#010101" d="M208.6,128c28.1-12.3,46.4-30.8,47.4-51.4c0,0-7.4-5.7-31.3-14.5c-21-7.7-37-9.5-37-9.5l0.1,45.8c0,6.8-2.7,13.8-7.9,20 c-15.9-3.8-33.4-6-51.8-6s-36,2.2-51.8,6c-5.2-6.2-7.9-13.2-7.9-20l0.1-45.8c0,0-16,1.8-37,9.5C7.4,70.9,0,76.5,0,76.5 c1,20.6,19.3,39.1,47.4,51.4C19.3,140.4,1,158.9,0,179.5c0,0,7.4,5.7,31.3,14.5c21,7.7,37,9.5,37,9.5l-0.1-45.8 c0-6.8,2.7-13.8,7.9-20c15.9,3.8,33.4,6,51.8,6l0,0c18.4,0,36-2.2,51.8-6c5.2,6.2,7.9,13.2,7.9,20l-0.1,45.8c0,0,16-1.8,37-9.5 c23.9-8.8,31.3-14.5,31.3-14.5C255,158.9,236.7,140.4,208.6,128z M127.4,138.3c-16.6,0-30.1-4.1-40.1-10.3 c9.9-6.2,23.5-10.3,40.1-10.3h0.5l0,0h0.5c16.6,0,30.1,4.1,40.1,10.3c-9.9,6.2-23.5,10.3-40.1,10.3H127.4z"/>
</svg>
